<svg xmlns="http://www.w3.org/2000/svg" width="32" height="32" viewBox="0 0 32 32">  <g id="edu_ico" transform="translate(-206 -865)">    <circle id="Ellipse_1996" data-name="Ellipse 1996" cx="16" cy="16" r="16" transform="translate(206 865)" fill="#fff"/>    <g id="Group_4525" data-name="Group 4525" transform="translate(-329.197 506.219)">      <path id="Path_8932" data-name="Path 8932" d="M557.3,383.746h-5.018v-2.434a5.018,5.018,0,1,1,5.018,0Zm-4.015-1H556.3V380.7l.278-.139a4.015,4.015,0,1,0-3.567,0l.278.139Z" transform="translate(-3.776 -3.664)" fill="#003574"/>      <rect id="Rectangle_3394" data-name="Rectangle 3394" width="5.018" height="1.004" transform="translate(548.51 381.086)" fill="#003574"/>      <rect id="Rectangle_3395" data-name="Rectangle 3395" width="3.011" height="1.004" transform="translate(549.513 383.093)" fill="#003574"/>      <path id="Path_8933" data-name="Path 8933" d="M543.127,381.453h-.93a.97.97,0,0,0,.93,1h1.505v-1Z" transform="translate(0 -8.396)" fill="#003574"/>      <path id="Path_8934" data-name="Path 8934" d="M559.781,365.532v-.93a.969.969,0,0,0-1,.93v1.505h1Z" transform="translate(-8.259 0)" fill="#003574"/>      <path id="Path_8935" data-name="Path 8935" d="M547.695,369.678l-.67-.644A.969.969,0,0,0,547,370.4l1.085,1.044.7-.724Z" transform="translate(-2.257 -2.208)" fill="#003574"/>      <path id="Path_8936" data-name="Path 8936" d="M573.688,381.453h.929a.969.969,0,0,1-.929,1h-1.506v-1Z" transform="translate(-14.938 -8.396)" fill="#003574"/>      <path id="Path_8937" data-name="Path 8937" d="M569.5,369.678l.67-.644a.969.969,0,0,1,.027,1.368l-1.084,1.044-.7-.724Z" transform="translate(-13.062 -2.208)" fill="#003574"/>    </g>  </g></svg>